<svg width="603" height="432" xmlns="http://www.w3.org/2000/svg" xmlns:xlink="http://www.w3.org/1999/xlink" xml:space="preserve" overflow="hidden"><defs><clipPath id="clip0"><rect x="722" y="281" width="603" height="432"/></clipPath></defs><g clip-path="url(#clip0)" transform="translate(-722 -281)"><path d="M444.882 17.3834C394.024 9.18715 346.262 43.0854 338.199 93.1004 330.137 143.115 345.874 184.367 415.686 198.502 471.111 209.73 514.305 172.801 522.367 122.786 530.429 72.7709 495.735 25.5808 444.882 17.3834Z" fill="#F6C79D" transform="matrix(1.00244 0 0 1 722.602 286.017)"/><path d="M513.491 138.34C513.491 138.34 531.612 139.926 530.708 151.3 529.805 162.677 515.78 164.86 504.051 156.443L513.491 138.34Z" fill="#F6C79D" transform="matrix(1.00244 0 0 1 722.602 286.017)"/><path d="M339.86 109.354C339.86 109.354 321.796 107.165 320.335 118.48 318.868 129.798 332.141 134.826 345.353 129.009L339.86 109.354Z" fill="#F6C79D" transform="matrix(1.00244 0 0 1 722.602 286.017)"/><path d="M422.322 130.092C422.322 130.092 421.953 129.828 421.308 129.366 420.687 128.888 419.821 128.184 418.859 127.225 418.374 126.752 417.872 126.209 417.368 125.596 416.869 124.982 416.34 124.318 415.876 123.543 415.41 122.771 414.965 121.918 414.625 120.936 414.289 119.959 414.077 118.829 414.181 117.604 414.28 116.387 414.746 115.106 415.493 114.148 415.609 114.001 415.617 113.961 415.826 113.726L416.038 113.495C416.147 113.366 416.494 113.048 416.715 112.859 417.18 112.489 417.676 112.16 418.2 111.916 419.244 111.417 420.327 111.193 421.285 111.167 422.249 111.134 423.112 111.235 423.868 111.389 425.383 111.693 426.51 112.163 427.282 112.538 428.053 112.909 428.478 113.176 428.528 113.204 429.551 113.802 429.894 115.117 429.296 116.138 428.699 117.161 427.385 117.504 426.362 116.908 426.411 116.937 426.099 116.765 425.505 116.527 424.913 116.299 424.036 115.975 423.031 115.793 422.025 115.604 420.922 115.64 420.116 115.994 419.909 116.082 419.724 116.207 419.537 116.339 419.453 116.426 419.469 116.366 419.3 116.546L419.085 116.774C419.156 116.693 419.045 116.833 419.032 116.85 418.747 117.221 418.55 117.579 418.47 118.063 418.297 119.019 418.671 120.434 419.263 121.696 419.848 122.982 420.62 124.165 421.293 125.176 421.99 126.177 422.615 127.005 423.062 127.573 423.509 128.134 423.763 128.456 423.763 128.456L423.817 128.522C424.192 128.996 424.112 129.684 423.639 130.058 423.247 130.37 422.708 130.368 422.322 130.092Z" fill="#3F3F3C" transform="matrix(1.00244 0 0 1 722.602 286.017)"/><path d="M447.696 137.51C446.901 148.374 456.275 157.917 468.636 158.823 480.999 159.731 491.668 151.657 492.464 140.794 493.262 129.929 483.885 120.391 471.521 119.483 459.16 118.572 448.493 126.646 447.696 137.51Z" fill="#F9705A" transform="matrix(1.00244 0 0 1 722.602 286.017)"/><path d="M354.295 126.032C352.773 135.479 360.249 144.539 370.995 146.272 381.743 148.01 391.69 141.758 393.217 132.31 394.741 122.869 387.263 113.803 376.512 112.072 365.767 110.335 355.822 116.588 354.295 126.032Z" fill="#F9705A" transform="matrix(1.00244 0 0 1 722.602 286.017)"/><path d="M369.958 101.542C369.949 101.577 370.051 101.053 370.318 100.297 370.597 99.5436 371.032 98.4705 371.783 97.3167 372.126 96.7139 372.59 96.1309 373.073 95.4988 373.608 94.9207 374.116 94.2383 374.789 93.6859 375.425 93.0942 376.101 92.4953 376.873 91.9979 377.603 91.4406 378.441 91.0302 379.242 90.5574 380.075 90.1459 380.949 89.8285 381.788 89.4746 382.653 89.199 383.527 88.998 384.355 88.7739 385.2 88.6256 386.024 88.535 386.798 88.4382 387.57 88.3415 388.31 88.3978 388.984 88.3892 390.334 88.3475 391.435 88.6048 392.202 88.7174 392.967 88.8521 393.396 88.9539 393.396 88.9539 393.99 89.0923 394.36 89.6852 394.22 90.2805 394.124 90.7018 393.795 91.0094 393.402 91.1037L393.289 91.1307C393.289 91.1307 392.875 91.2286 392.169 91.3634 391.813 91.4258 391.388 91.5104 390.903 91.5765 390.413 91.6266 389.878 91.7823 389.295 91.9047 388.717 92.0492 388.081 92.1424 387.434 92.3212 386.79 92.5122 386.121 92.7242 385.419 92.892 384.743 93.1407 384.056 93.4213 383.347 93.6516 382.674 93.9737 381.966 94.2469 381.303 94.6046 380.649 94.9783 379.946 95.2711 379.348 95.712 379.041 95.9178 378.729 96.115 378.414 96.3 378.117 96.5156 377.828 96.7287 377.543 96.9395 376.956 97.3438 376.458 97.8214 375.93 98.2221 375.467 98.6839 374.964 99.0734 374.569 99.4997 373.732 100.313 373.094 101.058 372.638 101.58 372.188 102.111 371.974 102.37 371.962 102.403 371.724 102.955 371.083 103.211 370.529 102.975 369.976 102.737 369.721 102.097 369.958 101.542Z" fill="#3F3F3C" transform="matrix(1.00244 0 0 1 722.602 286.017)"/><path d="M395.004 106.68C394.443 113.823 388.197 119.158 381.055 118.597 373.912 118.034 368.574 111.785 369.139 104.643 369.701 97.5017 375.95 92.1683 383.092 92.7305 390.234 93.289 395.567 99.5411 395.004 106.68Z" fill="#3F3F3C" transform="matrix(1.00244 0 0 1 722.602 286.017)"/><path d="M452.041 108.915C452.033 108.949 452.134 108.425 452.4 107.67 452.679 106.917 453.115 105.844 453.865 104.69 454.21 104.087 454.674 103.504 455.156 102.873 455.689 102.292 456.2 101.611 456.872 101.06 457.508 100.467 458.184 99.8695 458.957 99.3722 459.686 98.8136 460.524 98.4021 461.325 97.9317 462.157 97.5176 463.032 97.204 463.869 96.8464 464.735 96.572 465.607 96.3711 466.438 96.1457 467.282 95.9987 468.108 95.908 468.88 95.8126 469.653 95.7146 470.393 95.7709 471.067 95.7611 472.416 95.7207 473.519 95.978 474.284 96.0894 475.048 96.2266 475.477 96.3271 475.477 96.3271 476.071 96.4656 476.441 97.0584 476.303 97.6525 476.205 98.0738 475.879 98.3825 475.486 98.4768L475.37 98.5025C475.37 98.5025 474.96 98.603 474.251 98.7365 473.898 98.7989 473.47 98.8835 472.984 98.9496 472.495 98.9997 471.96 99.1554 471.378 99.2778 470.799 99.4236 470.162 99.5167 469.517 99.6955 468.873 99.8866 468.202 100.097 467.501 100.266 466.826 100.514 466.14 100.793 465.427 101.025 464.756 101.348 464.047 101.62 463.384 101.978 462.734 102.351 462.029 102.643 461.43 103.084 461.123 103.291 460.811 103.488 460.494 103.673 460.202 103.889 459.911 104.103 459.625 104.314 459.038 104.717 458.539 105.196 458.011 105.595 457.548 106.058 457.046 106.447 456.649 106.873 455.813 107.686 455.174 108.432 454.721 108.951 454.269 109.484 454.056 109.743 454.044 109.776 453.807 110.328 453.166 110.584 452.613 110.348 452.059 110.11 451.802 109.468 452.041 108.915Z" fill="#3F3F3C" transform="matrix(1.00244 0 0 1 722.602 286.017)"/><path d="M477.087 114.052C476.524 121.196 470.28 126.531 463.138 125.971 455.992 125.404 450.66 119.158 451.223 112.014 451.785 104.873 458.032 99.5387 465.176 100.102 472.319 100.666 477.651 106.91 477.087 114.052Z" fill="#3F3F3C" transform="matrix(1.00244 0 0 1 722.602 286.017)"/><path d="M572.844 355.021C569.6 337.612 564.777 320.173 559.449 303.903 553.799 314.227 543.403 321.707 531.362 323.273 542.444 344.36 550.791 364.205 550.791 364.205 550.791 364.205 540.263 372.926 542.051 379.596 543.833 386.265 558.012 376.091 558.012 376.091 558.012 376.091 561.948 398.014 567.433 398.222 572.922 398.431 569.02 382.869 569.02 382.869 569.02 382.869 580.71 398.07 584.985 394.709 589.258 391.346 578.869 381.068 578.869 381.068 578.869 381.068 588.769 388.804 592.487 385.525 596.207 382.247 585.672 374.831 585.672 374.831 585.672 374.831 594.833 378.357 597.599 374.762 600.36 371.172 572.844 355.021 572.844 355.021Z" fill="#F6C79D" transform="matrix(1.00244 0 0 1 722.602 286.017)"/><path d="M450.791 200.995C450.791 200.995 499.848 211.982 531.359 251.874 562.869 291.764 577.778 346.088 577.778 346.088 577.778 346.088 558.975 364.067 545.222 364.29 545.222 364.29 519.568 299.526 488.395 293.443 461.315 288.158 450.791 200.995 450.791 200.995Z" fill="#0E67A3" transform="matrix(1.00244 0 0 1 722.602 286.017)"/><path d="M451.308 200.995C451.308 200.995 408.115 205.617 398.059 202.934L357.163 292.771C357.163 292.771 357.497 320.591 351.799 336.346 351.799 336.346 462.421 345.733 508.011 329.643 508.011 329.643 507.675 280.674 495.606 249.682L451.308 200.995Z" fill="#0E67A3" transform="matrix(1.00244 0 0 1 722.602 286.017)"/><path d="M523.658 130.364C523.658 130.364 520.362 147.966 511.043 145.781 501.724 143.595 502.449 111.279 502.449 111.279 502.449 111.279 492.461 114.009 493.736 100.582 495.009 87.1581 494.942 91.0302 494.942 91.0302 494.942 91.0302 486.135 97.2567 482.793 90.6627 479.452 84.0675 488.084 70.4436 488.084 70.4436 488.084 70.4436 463.892 80.9807 458.166 71.6 452.438 62.218 467.575 48.3528 467.575 48.3528 467.575 48.3528 430.162 66.4748 417.435 61.2087 406.305 56.6015 412.9 40.54 412.9 40.54 412.9 40.54 385.31 70.6029 373.404 67.6421 360.1 64.336 362.825 50.6839 362.825 50.6839 362.825 50.6839 340.718 65.1493 334.345 56.8736 327.975 48.5977 356.464 6.38831 412.268 0.679986 468.069-5.03072 501.688 27.1292 501.688 27.1292 501.688 27.1292 499.432 16.5725 496.956 12.9981 494.479 9.42121 500.079 4.39037 507.378 11.7854 514.678 19.1817 509.975 34.152 509.975 34.152 509.975 34.152 526.357 26.5805 530.488 33.3153 534.618 40.0501 514.967 37.9493 513.067 42.2955 513.067 42.2955 531.727 55.0706 534.085 89.0925 535.997 116.721 523.658 130.364 523.658 130.364Z" fill="#3F3F3C" transform="matrix(1.00244 0 0 1 722.602 286.017)"/><path d="M356.307 51.4617C356.307 51.4617 341.579 63.4087 336.119 87.92 330.66 112.43 339.499 113.604 342.276 113.732 345.053 113.861 345.434 92.8969 345.434 92.8969 345.434 92.8969 368.037 73.0967 367.435 56.1936 366.835 39.2893 356.307 51.4617 356.307 51.4617Z" fill="#3F3F3C" transform="matrix(1.00244 0 0 1 722.602 286.017)"/><path d="M99.4052 242.709C86.4095 242.165 69.7379 306.311 71.5043 328.516L220.528 328.516C220.528 328.516 239.132 277.835 211.773 256.54 190.764 240.187 154.423 241.195 154.423 241.195L99.4052 242.709Z" fill="#FFF5DE" transform="matrix(1.00244 0 0 1 722.602 286.017)"/><path d="M30.7574 321.955 517.289 321.955 562.923 399.936 552.846 426.94 8.7327 424.827 0 393.879Z" fill="#F9705A" transform="matrix(1.00244 0 0 1 722.602 286.017)"/><path d="M132.837 64.4523C81.5208 68.9443 43.4994 113.495 47.9166 163.964 52.3313 214.432 77.6806 250.578 148.83 247.212 205.317 244.543 238.166 198.17 233.75 147.704 229.335 97.2359 184.153 59.9628 132.837 64.4523Z" fill="#F6C79D" transform="matrix(1.00244 0 0 1 722.602 286.017)"/><path d="M224.871 180.085C224.871 180.085 243.042 179.209 243.682 190.601 244.325 201.997 230.722 206.049 217.965 199.293L224.871 180.085Z" fill="#F6C79D" transform="matrix(1.00244 0 0 1 722.602 286.017)"/><path d="M54.1039 188.979C54.1039 188.979 36.0529 191.272 37.4027 202.605 38.7489 213.935 52.8483 215.568 64.2354 206.697L54.1039 188.979Z" fill="#F6C79D" transform="matrix(1.00244 0 0 1 722.602 286.017)"/><path d="M133.492 194.861C131.763 193.19 130.311 191.321 129.075 189.186 128.797 188.63 128.48 188.101 128.247 187.5 127.98 186.926 127.758 186.311 127.588 185.661 127.392 185.031 127.306 184.314 127.226 183.61 127.21 182.865 127.193 182.12 127.409 181.322 127.48 180.925 127.595 180.541 127.8 180.167 127.99 179.799 128.151 179.4 128.394 179.07 128.651 178.752 128.92 178.437 129.197 178.131L129.405 177.903 129.432 177.875 129.447 177.861 129.61 177.729 129.653 177.696 129.736 177.632 130.077 177.373C130.207 177.279 130.263 177.213 130.455 177.098L131.075 176.761C131.283 176.655 131.503 176.546 131.71 176.456L132.292 176.277C132.686 176.15 133.079 176.076 133.472 176.042 133.872 175.981 134.259 175.97 134.637 175.989 135.407 175.993 136.133 176.119 136.817 176.291 137.509 176.454 138.154 176.69 138.774 176.951 139.394 177.211 139.972 177.53 140.538 177.861 141.114 178.213 141.602 178.534 142.214 179.015L138.606 180.315C139.331 176.836 140.148 173.371 141.019 169.923 141.457 168.196 141.918 166.477 142.403 164.762 142.889 163.048 143.399 161.337 143.968 159.64 144.16 159.064 144.781 158.753 145.358 158.945 145.844 159.108 146.142 159.581 146.103 160.071 145.967 161.857 145.772 163.631 145.553 165.398 145.335 167.168 145.09 168.932 144.823 170.693 144.283 174.209 143.691 177.716 143.004 181.204 142.766 182.415 141.59 183.203 140.379 182.965 140.043 182.898 139.742 182.762 139.483 182.57L139.396 182.505C139.107 182.289 138.644 181.981 138.241 181.751 137.822 181.513 137.391 181.299 136.965 181.112 136.54 180.923 136.11 180.758 135.698 180.656 135.284 180.541 134.874 180.464 134.507 180.461 134.315 180.443 134.135 180.443 133.968 180.474 133.792 180.479 133.625 180.506 133.475 180.562 133.399 180.582 133.318 180.596 133.237 180.611 133.182 180.633 133.146 180.656 133.097 180.67 133.052 180.685 133.002 180.694 132.945 180.7 132.883 180.713 132.726 180.841 132.62 180.906L132.268 181.148 132.18 181.206 132.135 181.237 132.13 181.242C132.433 181.002 132.212 181.177 132.28 181.123L132.274 181.129 132.266 181.142 132.188 181.23C132.086 181.349 131.973 181.455 131.85 181.562 131.744 181.677 131.71 181.827 131.618 181.951 131.515 182.066 131.467 182.223 131.432 182.392 131.289 182.689 131.275 183.085 131.231 183.482 131.251 183.904 131.238 184.339 131.343 184.805 131.425 185.268 131.52 185.746 131.676 186.231 131.789 186.716 132.008 187.201 132.175 187.691 132.585 188.659 133.004 189.654 133.537 190.609 134.039 191.573 134.594 192.543 135.166 193.465L135.185 193.495C135.503 194.01 135.346 194.683 134.832 195.003 134.396 195.275 133.845 195.201 133.492 194.861Z" fill="#3F3F3C" transform="matrix(1.00244 0 0 1 722.602 286.017)"/><path d="M210.191 197.82C210.191 208.714 200.142 217.545 187.746 217.545 175.35 217.545 165.301 208.714 165.301 197.82 165.301 186.926 175.35 178.094 187.746 178.094 200.142 178.094 210.191 186.926 210.191 197.82Z" fill="#F9705A" transform="matrix(-0.995458 0.117499 -0.117785 -0.993039 1121 658.221)"/><path d="M71.5705 206.918C71.8669 216.48 80.9268 223.956 91.808 223.616 102.692 223.279 111.269 215.256 110.975 205.691 110.677 196.129 101.615 188.652 90.7313 188.989 79.8536 189.331 71.2741 197.354 71.5705 206.918Z" fill="#F9705A" transform="matrix(1.00244 0 0 1 722.602 286.017)"/><path d="M82.5731 179.837C82.5718 179.873 82.5718 179.337 82.6907 178.548 82.8206 177.755 83.0447 176.617 83.5629 175.342 83.7847 174.685 84.13 174.026 84.4841 173.313 84.8982 172.643 85.2693 171.876 85.8254 171.207 86.3362 170.503 86.8862 169.788 87.5489 169.156 88.1614 168.467 88.9049 167.904 89.6031 167.289 90.3406 166.727 91.1392 166.251 91.8962 165.743 92.6936 165.307 93.5132 164.945 94.2836 164.568 95.0848 164.262 95.8773 164.016 96.6196 163.774 97.3583 163.532 98.0969 163.447 98.7547 163.311 100.074 163.016 101.203 163.057 101.976 163.021 102.753 163.011 103.194 163.027 103.194 163.027 103.803 163.051 104.279 163.564 104.256 164.175 104.241 164.606 103.978 164.97 103.609 165.139L103.503 165.187C103.503 165.187 103.117 165.361 102.447 165.627 102.111 165.758 101.709 165.919 101.245 166.076 100.775 166.218 100.279 166.473 99.7273 166.703 99.1883 166.958 98.5819 167.168 97.9817 167.467 97.3851 167.777 96.7678 168.111 96.1112 168.41 95.4938 168.782 94.874 169.186 94.2174 169.549 93.6208 169.993 92.9753 170.394 92.3934 170.872 91.8238 171.363 91.1893 171.785 90.6834 172.33 90.4225 172.592 90.1529 172.843 89.8798 173.085 89.6312 173.354 89.3861 173.618 89.146 173.878 88.6463 174.386 88.2469 174.95 87.8048 175.442 87.4397 175.986 87.0195 176.464 86.7121 176.956 86.0433 177.914 85.5582 178.767 85.2128 179.365 84.8698 179.973 84.7093 180.267 84.7044 180.302 84.5758 180.891 83.9939 181.263 83.4059 181.136 82.8168 181.006 82.4445 180.425 82.5731 179.837Z" fill="#3F3F3C" transform="matrix(1.00244 0 0 1 722.602 286.017)"/><path d="M108.221 181.582C108.221 188.746 102.413 194.554 95.2482 194.554 88.0837 194.554 82.2757 188.746 82.2757 181.582 82.2757 174.417 88.0837 168.609 95.2482 168.609 102.413 168.609 108.221 174.417 108.221 181.582Z" fill="#3F3F3C" transform="matrix(1.00244 0 0 1 722.602 286.017)"/><path d="M164.564 171.49C164.561 171.527 164.561 170.992 164.679 170.199 164.811 169.407 165.035 168.269 165.552 166.996 165.774 166.339 166.12 165.677 166.474 164.966 166.888 164.296 167.259 163.53 167.814 162.86 168.326 162.156 168.876 161.442 169.54 160.806 170.15 160.12 170.895 159.558 171.592 158.943 172.331 158.378 173.129 157.903 173.886 157.396 174.683 156.961 175.502 156.597 176.272 156.219 177.074 155.913 177.866 155.669 178.607 155.426 179.348 155.184 180.084 155.098 180.743 154.962 182.062 154.667 183.192 154.708 183.965 154.672 184.742 154.662 185.183 154.679 185.183 154.679 185.793 154.702 186.268 155.215 186.245 155.824 186.229 156.257 185.967 156.622 185.597 156.79L185.49 156.837C185.49 156.837 185.104 157.011 184.436 157.278 184.101 157.408 183.697 157.57 183.233 157.727 182.762 157.869 182.267 158.124 181.717 158.354 181.177 158.609 180.57 158.819 179.971 159.117 179.374 159.428 178.757 159.762 178.1 160.061 177.484 160.434 176.864 160.838 176.209 161.199 175.61 161.644 174.965 162.047 174.382 162.524 173.815 163.016 173.178 163.435 172.675 163.983 172.413 164.243 172.144 164.496 171.869 164.736 171.62 165.005 171.376 165.27 171.135 165.532 170.635 166.041 170.238 166.603 169.795 167.096 169.428 167.638 169.008 168.117 168.701 168.608 168.033 169.566 167.548 170.42 167.201 171.018 166.86 171.626 166.699 171.92 166.693 171.955 166.566 172.543 165.985 172.915 165.396 172.786 164.808 172.659 164.436 172.078 164.564 171.49Z" fill="#3F3F3C" transform="matrix(1.00244 0 0 1 722.602 286.017)"/><path d="M190.128 171.778C190.933 178.899 185.816 185.32 178.698 186.126 171.576 186.93 165.152 181.807 164.348 174.691 163.546 167.57 168.663 161.147 175.785 160.343 182.906 159.54 189.326 164.66 190.128 171.778Z" fill="#3F3F3C" transform="matrix(1.00244 0 0 1 722.602 286.017)"/><path d="M120.455 247.288 120.304 227.486 165.359 230.149 167.002 247.193C167.002 247.193 153.346 267.507 136.977 264.063 120.603 260.617 120.455 247.288 120.455 247.288Z" fill="#F6C79D" transform="matrix(1.00244 0 0 1 722.602 286.017)"/><path d="M212.579 305.85C212.579 305.85 199.793 313.624 190.37 314.429 182.624 315.089 177.752 310.895 170.182 315.943 162.611 320.991 158.573 326.037 161.096 328.057 161.096 328.057 161.221 332.094 162.989 332.599 162.989 332.599 162.737 336.764 166.271 337.142 166.271 337.142 167.406 340.172 169.425 339.919 171.442 339.666 175.733 334.619 175.733 334.619 175.733 334.619 180.149 338.403 184.44 338.278 188.73 338.152 192.012 333.105 192.012 333.105 192.012 333.105 214.724 330.328 224.44 324.903 234.156 319.477 240.845 309.256 237.06 301.686 233.274 294.114 229.236 290.959 229.236 290.959L212.579 305.85Z" fill="#F6C79D" transform="matrix(1.00244 0 0 1 722.602 286.017)"/><path d="M194.47 247.43C194.47 247.43 222.626 253.209 236.625 275.264 249.383 295.363 238.112 307.03 238.112 307.03 238.112 307.03 234.619 296.31 226.41 293.484L220.951 298.364 195.994 284.098 194.47 247.43Z" fill="#FFF5DE" transform="matrix(1.00244 0 0 1 722.602 286.017)"/><path d="M411.986 158.121C411.991 158.15 411.972 157.592 412.119 156.716 412.179 156.271 412.31 155.75 412.471 155.146 412.677 154.561 412.86 153.868 413.226 153.18 413.533 152.462 413.978 151.732 414.496 150.977 414.751 150.597 415.081 150.252 415.389 149.875 415.688 149.486 416.044 149.137 416.45 148.82 416.847 148.495 417.231 148.135 417.667 147.831 418.118 147.552 418.58 147.267 419.059 147.003 419.522 146.703 420.05 146.551 420.566 146.356 421.087 146.192 421.602 145.947 422.14 145.86L423.753 145.604C424.02 145.569 424.289 145.515 424.555 145.499L425.344 145.516C426.387 145.545 427.431 145.547 428.363 145.793 429.303 145.996 430.24 146.146 431.044 146.464 431.855 146.764 432.605 147.08 433.289 147.381 433.992 147.639 434.557 148.025 435.069 148.341 435.582 148.647 436.016 148.942 436.372 149.18 437.08 149.661 437.465 149.959 437.465 149.959 437.818 150.235 437.883 150.743 437.608 151.098 437.426 151.333 437.138 151.441 436.862 151.406L436.779 151.393C436.779 151.393 436.299 151.33 435.498 151.179 435.098 151.101 434.613 151.012 434.075 150.881 433.533 150.764 432.934 150.587 432.267 150.515 431.603 150.422 430.894 150.314 430.162 150.165 429.423 150.023 428.646 150.073 427.865 149.963 427.072 149.822 426.291 149.985 425.495 149.972 424.681 149.927 423.949 150.205 423.165 150.281 422.775 150.328 422.436 150.511 422.067 150.612 421.711 150.741 421.32 150.796 421.002 151 420.671 151.175 420.329 151.326 419.987 151.477 419.66 151.653 419.37 151.885 419.059 152.077 418.739 152.261 418.464 152.493 418.189 152.731 417.917 152.966 417.618 153.165 417.376 153.417 416.9 153.929 416.395 154.387 416.009 154.892 415.187 155.866 414.573 156.79 414.161 157.447 413.738 158.109 413.538 158.474 413.531 158.5 413.427 158.925 412.995 159.187 412.569 159.081 412.143 158.977 411.882 158.546 411.986 158.121Z" fill="#3F3F3C" transform="matrix(1.00244 0 0 1 722.602 286.017)"/><path d="M230.835 182.209C230.835 182.209 217.871 178.608 210.15 166.495 202.429 154.381 208.234 134.443 208.234 134.443 208.234 134.443 191.071 145.297 178.707 139.492 166.342 133.686 167.002 130.911 167.002 130.911 167.002 130.911 154.228 144.033 135.3 142.014 116.372 139.997 110.982 121.069 110.982 121.069 110.982 121.069 100.725 141.512 78.7686 144.034 56.8123 146.558 39.3996 123.341 42.4276 111.48 45.4557 99.6171 61.8603 96.8414 61.8603 96.8414 61.8603 96.8414 43.6905 82.7078 53.2795 67.8185 62.8697 52.9292 114.908 44.3484 143.653 59.7423 143.653 59.7423 152.16 42.5819 163.793 47.6288 175.426 52.6768 186.529 69.3325 186.529 69.3325 186.529 69.3325 194.605 56.4619 206.468 60.2469 218.328 64.0321 225.141 92.5515 225.141 92.5515 225.141 92.5515 248.36 82.4542 252.398 91.2886 256.437 100.122 230.835 105.422 230.835 105.422 230.835 105.422 257.121 133.7 240.627 184.293L230.835 182.209Z" fill="#F9705A" transform="matrix(1.00244 0 0 1 722.602 286.017)"/><path d="M62.1127 137.218C62.1127 137.218 67.1607 157.178 58.8323 164.106 58.8323 164.106 67.4094 187.696 54.9137 190.399 42.4192 193.1 31.7277 144.284 49.8215 126.114L62.1127 137.218Z" fill="#F9705A" transform="matrix(1.00244 0 0 1 722.602 286.017)"/><path d="M415.775 331.669C415.775 331.669 421.592 334.079 421.229 335.943 420.866 337.807 411.179 337.22 411.179 337.22L415.775 331.669Z" fill="#F6C79D" transform="matrix(1.00244 0 0 1 722.602 286.017)"/><path d="M414.767 353.151 420.536 307.805C420.536 307.805 413.64 303.68 407.429 306.837L403.73 352.417 410.194 364.29 414.767 353.151Z" fill="#3F3F3C" transform="matrix(1.00244 0 0 1 722.602 286.017)"/><path d="M391.147 320.592C386.381 319.184 380.819 314.242 376.047 309.095 369.832 313.724 362.178 316.487 353.976 316.487 351.658 316.487 349.386 316.257 347.177 315.837 359.619 329.938 378.866 338.493 378.866 338.493 382.652 346.031 388.708 347.949 388.708 347.949 388.708 347.949 384.846 350.354 387.188 352.524 389.528 354.692 395.751 351.973 395.751 351.973 398.427 354.02 402.87 349.108 402.87 349.108 407.007 350.986 410.89 346.097 410.89 346.097 413.042 346.242 415.258 338.916 415.775 331.669 416.293 324.422 401.653 323.697 391.147 320.592Z" fill="#F6C79D" transform="matrix(1.00244 0 0 1 722.602 286.017)"/><path d="M406.785 199.773C406.785 199.773 363.693 204.096 330.381 238.418 297.068 272.74 332.273 320.313 376.689 342.016L396.374 319.681C396.374 319.681 353.094 289.396 372.274 259.617 391.453 229.839 404.611 222.015 404.611 222.015L406.785 199.773Z" fill="#0E67A3" transform="matrix(1.00244 0 0 1 722.602 286.017)"/><path d="M404.761 201.09 404.611 181.29 449.664 183.95 451.308 200.995C451.308 200.995 437.651 221.309 421.282 217.865 404.909 214.419 404.761 201.09 404.761 201.09Z" fill="#F6C79D" transform="matrix(1.00244 0 0 1 722.602 286.017)"/><path d="M421.247 334.489 478.62 329.573C478.62 329.573 515.719 363.693 526.319 376.136L450.986 380.679C450.986 380.679 432.769 348.161 421.247 334.489Z" fill="#FFF5DE" transform="matrix(1.00244 0 0 1 722.602 286.017)"/><path d="M87.8539 328.388 147.665 331.229C147.665 331.229 180.978 369.78 180.221 374.447 179.464 379.114 102.617 377.6 102.617 377.6L87.8539 328.388Z" fill="#FFF5DE" transform="matrix(1.00244 0 0 1 722.602 286.017)"/><path d="M123.675 307.03C123.675 307.03 129.931 307.757 130.092 309.649 130.252 311.542 120.773 313.624 120.773 313.624L123.675 307.03Z" fill="#F6C79D" transform="matrix(1.00244 0 0 1 722.602 286.017)"/><path d="M128.578 327.97 121.734 282.773C121.734 282.773 113.974 280.69 108.863 285.422L117.759 330.281 127.223 339.934 128.578 327.97Z" fill="#0E67A3" transform="matrix(1.00244 0 0 1 722.602 286.017)"/><path d="M64.8296 285.949C64.8296 285.949 85.5031 302.984 96.9602 303.104 107.915 303.222 122.194 299.917 123.675 307.03 125.159 314.144 125.029 321.796 122.921 322.243 122.921 322.243 120.522 328.008 116.029 327.332 116.029 327.332 113.095 333.273 109.963 332.034 109.963 332.034 104.72 336.35 101.876 334.903 99.0316 333.454 102.089 330.085 102.089 330.085 102.089 330.085 95.7389 329.897 90.038 323.68 90.038 323.68 59.3038 319.314 44.1474 302.999 29.0571 286.755 55.825 272.853 68.4554 268.627 81.0861 264.402 64.8296 285.949 64.8296 285.949Z" fill="#F6C79D" transform="matrix(1.00244 0 0 1 722.602 286.017)"/><path d="M100.219 242.709C100.219 242.709 63.1208 248.767 45.2671 275.011 45.2671 275.011 58.2748 278.904 64.8296 285.949L75.6191 293.837C75.6191 293.837 89.9768 263.845 89.9572 263.276 89.935 262.709 100.219 242.709 100.219 242.709Z" fill="#FFF5DE" transform="matrix(1.00244 0 0 1 722.602 286.017)"/><path d="M461.358 85.9907C461.358 85.9907 471.202 82.7103 472.463 85.9907 473.725 89.27 465.649 92.0469 463.125 91.2899 460.601 90.5329 457.319 88.7665 461.358 85.9907Z" fill="#3F3F3C" transform="matrix(1.00244 0 0 1 722.602 286.017)"/><path d="M392.128 69.8128C392.128 69.8128 402.499 69.4195 402.791 72.9217 403.084 76.4226 394.554 76.8293 392.343 75.3949 390.13 73.9617 387.475 71.35 392.128 69.8128Z" fill="#3F3F3C" transform="matrix(1.00244 0 0 1 722.602 286.017)"/><path d="M126.002 217.026C125.999 217.011 126.174 217.185 126.48 217.362 126.789 217.544 127.195 217.801 127.838 218.091 128.151 218.237 128.476 218.42 128.859 218.573 129.25 218.711 129.674 218.861 130.126 219.021 130.988 219.406 132.105 219.528 133.224 219.837 133.78 220.01 134.411 220.03 135.044 220.099 135.681 220.155 136.329 220.249 136.998 220.326 138.347 220.431 139.801 220.305 141.274 220.365 142.758 220.345 144.302 220.031 145.864 219.923L147.041 219.815 147.115 219.809 147.133 219.808C147.228 219.793 147.026 219.826 147.052 219.82L147.092 219.813 147.244 219.783 147.55 219.723 148.163 219.602C148.951 219.423 149.875 219.315 150.546 219.069 151.269 218.846 151.991 218.7 152.724 218.454 153.459 218.19 154.19 217.926 154.917 217.667 155.622 217.346 156.323 217.032 157.028 216.743 157.717 216.424 158.381 216.063 159.047 215.734 160.343 215.007 161.597 214.288 162.745 213.524 163.886 212.758 164.958 212.002 165.915 211.259 166.872 210.516 167.742 209.81 168.487 209.154 169.239 208.504 169.879 207.917 170.4 207.425 170.913 206.926 171.319 206.534 171.593 206.268 171.853 206 171.991 205.857 171.991 205.857L172.035 205.812C172.342 205.495 172.846 205.486 173.162 205.792 173.426 206.048 173.476 206.441 173.308 206.747 173.308 206.747 173.201 206.943 172.999 207.312 172.793 207.667 172.504 208.195 172.077 208.82 171.654 209.451 171.135 210.216 170.465 211.032 169.817 211.87 169.038 212.779 168.12 213.708 166.313 215.593 163.971 217.608 161.156 219.364 160.441 219.78 159.723 220.227 158.971 220.633 158.208 221.024 157.424 221.397 156.63 221.767 155.811 222.081 154.985 222.397 154.157 222.716 153.31 223.013 152.398 223.252 151.513 223.501 150.589 223.78 149.832 223.837 148.99 224.009L148.373 224.117 148.065 224.172 147.912 224.199 147.734 224.227 147.652 224.234 146.355 224.33C145.494 224.401 144.637 224.442 143.793 224.486 142.944 224.499 142.123 224.644 141.287 224.537 139.626 224.411 138.028 224.334 136.526 224.072 135.025 223.709 133.603 223.484 132.347 222.984 131.093 222.472 129.933 222.101 129.002 221.481 128.532 221.204 128.091 220.945 127.684 220.703 127.291 220.437 126.954 220.141 126.643 219.903 126.017 219.452 125.569 218.931 125.265 218.618 124.963 218.299 124.878 218.138 124.863 218.135L124.789 218.012C124.564 217.638 124.684 217.153 125.057 216.928 125.366 216.741 125.75 216.792 126.002 217.026Z" fill="#3F3F3C" transform="matrix(1.00244 0 0 1 722.602 286.017)"/><path d="M382.044 247.992C382.044 247.992 381.266 248.931 379.975 250.649 378.687 252.367 376.891 254.857 374.992 257.958 373.123 261.062 371.113 264.815 369.914 268.977 369.319 271.05 369.018 273.228 369.125 275.329 369.19 276.377 369.377 277.403 369.685 278.385L369.71 278.478C369.748 278.585 369.665 278.362 369.678 278.395L369.689 278.421 369.711 278.476 369.797 278.691 369.969 279.122 370.313 279.987C370.54 280.57 370.769 281.152 371.036 281.624 371.546 282.626 371.997 283.64 372.632 284.68 373.203 285.72 373.816 286.739 374.475 287.731 375.754 289.728 377.077 291.686 378.433 293.532 379.092 294.466 379.783 295.359 380.447 296.244 381.1 297.137 381.755 298 382.411 298.828 383.723 300.489 384.965 302.058 386.11 303.506 388.436 306.383 390.407 308.771 391.793 310.437 393.177 312.103 393.968 313.055 393.968 313.055 394.251 313.394 394.205 313.898 393.866 314.181 393.57 314.428 393.149 314.423 392.86 314.194 392.86 314.194 388.913 311.075 383.649 305.7 382.332 304.358 380.915 302.89 379.489 301.268 378.043 299.665 376.544 297.941 375.089 296.072 374.35 295.146 373.604 294.2 372.887 293.204 372.146 292.231 371.426 291.219 370.749 290.154 370.041 289.119 369.369 288.036 368.73 286.914 368.064 285.847 367.45 284.615 366.859 283.39 366.536 282.765 366.321 282.187 366.105 281.611L365.773 280.742 365.608 280.309 365.525 280.091 365.445 279.87 365.41 279.74C364.993 278.355 364.76 276.937 364.695 275.544 364.588 272.753 365.158 270.121 365.924 267.749 366.703 265.371 367.766 263.242 368.862 261.308 369.953 259.37 371.141 257.654 372.288 256.123 374.582 253.06 376.77 250.768 378.345 249.219 379.928 247.675 380.92 246.867 380.92 246.867 381.26 246.586 381.764 246.634 382.046 246.975 382.291 247.275 382.281 247.703 382.044 247.992Z" fill="#FFF5DE" transform="matrix(1.00244 0 0 1 722.602 286.017)"/><path d="M7.81401 391.982C7.81401 391.982 16.2221 391.973 30.935 391.957 45.648 391.98 66.667 392.016 91.8901 392.058 117.112 392.169 146.537 392.297 178.063 392.435 209.589 392.634 243.218 392.845 276.845 393.058 310.47 393.33 344.096 393.601 375.622 393.855 391.383 393.989 406.621 394.118 421.069 394.239 435.518 394.418 449.176 394.461 461.785 394.512 474.394 394.592 485.952 394.665 496.197 394.733 506.447 394.886 515.359 394.717 522.708 394.663 537.41 394.564 545.81 394.507 545.81 394.507L545.865 394.507C546.305 394.505 546.662 394.859 546.665 395.296 546.669 395.727 546.326 396.081 545.896 396.096 545.896 396.096 537.485 396.363 522.766 396.831 515.405 397.031 506.456 397.38 496.213 397.43 485.965 397.532 474.403 397.647 461.79 397.773 449.176 397.875 435.51 397.999 421.059 397.996 406.608 398.002 391.369 398.008 375.602 398.014 359.838 397.959 343.547 397.904 326.993 397.847 310.443 397.762 293.627 397.675 276.811 397.588 243.182 397.242 209.552 396.898 178.026 396.575 162.262 396.444 147.026 396.153 132.576 395.937 118.127 395.709 104.466 395.493 91.8568 395.295 66.6386 394.806 45.6233 394.398 30.9116 394.114 16.2011 393.77 7.79544 393.572 7.79544 393.572 7.35692 393.563 7.00896 393.198 7.01887 392.759 7.03004 392.327 7.38527 391.984 7.81401 391.982Z" fill="#FFF5DE" transform="matrix(1.00244 0 0 1 722.602 286.017)"/></g></svg>