<svg width="323" height="398" xmlns="http://www.w3.org/2000/svg" xmlns:xlink="http://www.w3.org/1999/xlink" xml:space="preserve" overflow="hidden"><defs><clipPath id="clip0"><rect x="35" y="281" width="323" height="398"/></clipPath></defs><g clip-path="url(#clip0)" transform="translate(-35 -281)"><path d="M300.664 322.706C300.664 322.706 310.241 354.808 311.125 377.776L276.492 377.776C276.492 377.776 273.474 358.924 270.436 350.241L300.664 322.706Z" fill="#F6C79D" transform="matrix(1.00044 0 0 1 46.6687 300.314)"/><path d="M40.5127 245.944C43.6978 225.174 50.5318 215.072 50.5318 215.072 50.5318 215.072 77.5579 205.575 75.2941 198.628 73.0271 191.68 59.8884 198.058 59.8884 198.058 59.8884 198.058 73.8103 179.424 68.5033 173.556 63.1976 167.688 56.2257 184.059 56.2257 184.059 56.2257 184.059 61.0342 164.431 55.0731 161.817 49.1136 159.204 43.5459 176.985 43.5459 176.985 43.5459 176.985 46.0769 158.87 39.3513 157.233 32.6277 155.592 32.9227 172.299 32.9227 172.299 32.9227 172.299 30.0157 160.147 24.5895 161.871 19.1612 163.598 16.8354 190.498 20.6125 202.543 20.6125 202.543 12.7705 220.643 6.65433 245.965 17.836 243.337 29.4546 243.408 40.5127 245.944Z" fill="#F6C79D" transform="matrix(1.00044 0 0 1 46.6687 300.314)"/><path d="M150.011 13.9622C209.051 2.69215 265.894 40.626 276.978 98.6881 288.059 156.75 271.091 205.388 190.145 224.222 125.878 239.177 74.2608 197.558 63.1785 139.496 52.0951 81.4341 90.9744 25.2307 150.011 13.9622Z" fill="#F6C79D" transform="matrix(1.00044 0 0 1 46.6687 300.314)"/><path d="M273.969 119.457C273.969 119.457 293.324 110.734 298.891 122.831 304.46 134.924 291.428 145.143 274.69 143.263L273.969 119.457Z" fill="#F6C79D" transform="matrix(1.00044 0 0 1 46.6687 300.314)"/><path d="M187.115 138.439C187.532 137.243 187.915 135.997 188.243 134.772 188.605 133.549 188.832 132.31 189.051 131.102 189.116 130.502 189.242 129.895 189.247 129.314 189.303 128.72 189.289 128.154 189.264 127.606 189.266 127.046 189.14 126.555 189.058 126.069 188.906 125.629 188.787 125.18 188.55 124.88 188.468 124.696 188.374 124.531 188.227 124.425 188.091 124.308 188.014 124.145 187.864 124.041 187.695 123.951 187.541 123.858 187.392 123.75L187.282 123.668 187.27 123.658 187.263 123.651C187.078 123.563 187.508 123.77 187.46 123.747L187.453 123.744 187.396 123.721 187.28 123.675 186.818 123.49C186.68 123.443 186.466 123.337 186.395 123.339 186.332 123.347 186.273 123.347 186.214 123.344 186.156 123.34 186.109 123.323 186.042 123.311 185.945 123.316 185.852 123.319 185.757 123.316 185.572 123.29 185.376 123.302 185.174 123.342 184.979 123.351 184.772 123.395 184.558 123.464 184.141 123.561 183.694 123.751 183.252 123.989 182.807 124.21 182.362 124.508 181.925 124.831 181.489 125.152 181.052 125.505 180.634 125.886 180.234 126.249 179.786 126.718 179.509 127.038L179.437 127.124C178.498 128.216 176.852 128.341 175.759 127.404 175.457 127.143 175.224 126.817 175.072 126.476 173.402 122.678 171.835 118.834 170.327 114.966 169.573 113.029 168.847 111.084 168.146 109.123 167.448 107.165 166.773 105.195 166.162 103.195 165.957 102.519 166.338 101.801 167.015 101.596 167.589 101.422 168.191 101.668 168.488 102.16 169.566 103.949 170.583 105.768 171.571 107.597 172.56 109.427 173.524 111.268 174.461 113.121 176.33 116.829 178.143 120.563 179.851 124.343L175.414 123.78C175.986 123.078 176.463 122.588 177.029 122.041 177.588 121.519 178.164 121.009 178.805 120.554 179.446 120.098 180.117 119.667 180.866 119.303 181.601 118.934 182.394 118.606 183.271 118.406 183.697 118.288 184.141 118.203 184.61 118.171 185.067 118.109 185.533 118.091 186.014 118.137L186.723 118.194C186.982 118.238 187.258 118.309 187.522 118.377L188.314 118.604C188.564 118.685 188.644 118.748 188.816 118.82L189.268 119.029 189.382 119.082 189.437 119.108 189.658 119.213 189.676 119.227 189.713 119.251 190.01 119.459C190.404 119.736 190.79 120.026 191.165 120.323 191.525 120.637 191.812 121.05 192.121 121.422 192.447 121.794 192.678 122.204 192.859 122.637 193.309 123.492 193.478 124.345 193.651 125.197 193.739 126.018 193.823 126.856 193.76 127.623 193.73 128.406 193.634 129.165 193.478 129.886 193.364 130.63 193.137 131.312 192.961 132.016 192.1 134.762 190.921 137.259 189.375 139.602 188.989 140.192 188.195 140.356 187.605 139.966 187.105 139.637 186.912 139.017 187.101 138.477L187.115 138.439Z" fill="#3F3F3C" transform="matrix(1.00044 0 0 1 46.6687 300.314)"/><path d="M154.407 154.098C155.701 166.744 145.085 178.188 130.701 179.66 116.313 181.133 103.597 172.076 102.304 159.431 101.009 146.788 111.625 135.345 126.013 133.872 140.399 132.397 153.115 141.455 154.407 154.098Z" fill="#F9705A" transform="matrix(1.00044 0 0 1 46.6687 300.314)"/><path d="M262.954 137.575C265.049 148.541 256.633 159.359 244.158 161.741 231.681 164.127 219.871 157.171 217.773 146.204 215.678 135.242 224.096 124.422 236.574 122.039 249.048 119.655 260.86 126.611 262.954 137.575Z" fill="#F9705A" transform="matrix(1.00044 0 0 1 46.6687 300.314)"/><path d="M241.227 110.607C241.212 110.569 240.954 110.276 240.411 109.67 239.864 109.078 239.093 108.229 238.09 107.308 237.616 106.828 237.016 106.391 236.46 105.866 235.83 105.417 235.235 104.875 234.534 104.423 234.195 104.189 233.85 103.951 233.499 103.707 233.125 103.502 232.754 103.284 232.388 103.054 231.677 102.56 230.846 102.243 230.073 101.828 229.288 101.432 228.451 101.139 227.657 100.785 226.818 100.54 226.011 100.237 225.214 99.9682 224.389 99.7957 223.601 99.5732 222.843 99.3717 222.084 99.1846 221.339 99.0992 220.659 98.9469 219.976 98.8244 219.346 98.6608 218.775 98.6188 218.205 98.5592 217.705 98.4737 217.291 98.4125 216.46 98.2811 215.976 98.1787 215.976 98.1787L215.843 98.1513C215.146 98.0062 214.7 97.3235 214.845 96.6263 214.948 96.1329 215.323 95.7638 215.778 95.6429 215.778 95.6429 216.275 95.5115 217.164 95.3269 218.052 95.1722 219.329 94.8336 220.904 94.8368 221.689 94.8231 222.55 94.732 223.456 94.8199 224.361 94.9077 225.324 94.9852 226.315 95.1303 227.289 95.3632 228.316 95.5688 229.334 95.8606 230.323 96.2467 231.354 96.5852 232.338 97.039 233.289 97.5613 234.279 98.0118 235.15 98.6381 236.066 99.1919 236.876 99.8666 237.636 100.538 238.439 101.159 239.058 101.937 239.7 102.594 240.283 103.316 240.846 103.98 241.266 104.67 242.179 105.99 242.723 107.229 243.075 108.096 243.409 108.968 243.546 109.577 243.535 109.537 243.83 110.174 243.554 110.931 242.916 111.226 242.279 111.522 241.522 111.245 241.227 110.607Z" fill="#3F3F3C" transform="matrix(1.00044 0 0 1 46.6687 300.314)"/><path d="M244.683 114.75C244.683 123.11 237.906 129.887 229.546 129.887 221.186 129.887 214.409 123.11 214.409 114.75 214.409 106.39 221.186 99.6131 229.546 99.6131 237.906 99.6131 244.683 106.39 244.683 114.75Z" fill="#3F3F3C" transform="matrix(1.00044 0 0 1 46.6687 300.314)"/><path d="M145.742 121.963C145.727 121.925 145.468 121.632 144.926 121.027 144.378 120.435 143.608 119.585 142.604 118.664 142.129 118.185 141.529 117.746 140.975 117.222 140.344 116.773 139.749 116.232 139.05 115.779 138.708 115.545 138.363 115.305 138.013 115.064 137.638 114.858 137.267 114.641 136.903 114.408 136.189 113.914 135.359 113.597 134.586 113.183 133.801 112.787 132.966 112.492 132.171 112.139 131.334 111.894 130.523 111.592 129.726 111.323 128.905 111.15 128.114 110.928 127.357 110.726 126.598 110.538 125.853 110.452 125.173 110.302 124.49 110.179 123.86 110.015 123.287 109.972 122.719 109.911 122.219 109.828 121.803 109.766 120.975 109.634 120.488 109.532 120.488 109.532L120.357 109.504C119.66 109.359 119.213 108.677 119.358 107.979 119.462 107.486 119.836 107.116 120.292 106.996 120.292 106.996 120.789 106.865 121.677 106.68 122.565 106.524 123.842 106.188 125.419 106.19 126.203 106.178 127.065 106.087 127.969 106.175 128.875 106.262 129.839 106.34 130.83 106.483 131.803 106.718 132.829 106.923 133.848 107.214 134.838 107.601 135.868 107.94 136.852 108.395 137.804 108.916 138.794 109.368 139.664 109.994 140.581 110.548 141.389 111.223 142.152 111.894 142.952 112.515 143.572 113.292 144.215 113.95 144.798 114.672 145.357 115.334 145.78 116.026 146.693 117.346 147.238 118.585 147.588 119.453 147.925 120.324 148.06 120.933 148.049 120.894 148.346 121.53 148.068 122.287 147.431 122.582 146.793 122.877 146.037 122.602 145.742 121.963Z" fill="#3F3F3C" transform="matrix(1.00044 0 0 1 46.6687 300.314)"/><path d="M149.196 126.105C149.196 134.465 142.419 141.241 134.06 141.241 125.7 141.241 118.924 134.465 118.924 126.105 118.924 117.746 125.7 110.97 134.06 110.97 142.419 110.97 149.196 117.746 149.196 126.105Z" fill="#3F3F3C" transform="matrix(1.00044 0 0 1 46.6687 300.314)"/><path d="M196.511 230.882C196.511 230.882 250.196 241.363 286.861 287.986 296.22 299.886 308.004 317.098 308.004 317.098 308.004 317.098 293.016 346.415 265.63 359.224 265.63 359.224 266.391 349.005 236.731 336.487 207.07 323.969 196.511 230.882 196.511 230.882Z" fill="#94B6C7" transform="matrix(1.00044 0 0 1 46.6687 300.314)"/><path d="M195.536 233.225C195.536 233.225 152.316 234.013 140.582 230.882L90.429 315.583C90.429 315.583 97.0768 359.392 90.429 377.776L268.873 378.726C268.873 378.726 268.481 321.589 254.4 285.427L195.536 233.225Z" fill="#94B6C7" transform="matrix(1.00044 0 0 1 46.6687 300.314)"/><path d="M197.726 236.467 197.902 213.364 145.333 216.471 143.415 236.356C143.415 236.356 159.35 260.06 178.45 256.041 197.553 252.019 197.726 236.467 197.726 236.467Z" fill="#F6C79D" transform="matrix(1.00044 0 0 1 46.6687 300.314)"/><path d="M46.0836 224.313C46.0836 224.313 34.0028 267.336 46.0836 271.991 53.4391 274.825 67.3107 271.549 67.3107 271.549L73.2738 319.251C73.2738 319.251 34.9949 338.891 13.2037 328.969-11.5312 317.705 4.1076 243.501 14.8392 217.883L46.0836 224.313Z" fill="#F6C79D" transform="matrix(1.00044 0 0 1 46.6687 300.314)"/><path d="M74.4711 256.464C64.6661 262.491 49.0048 264.702 49.0048 264.702L49.0048 336.953C49.0048 336.953 84.9787 325.877 125.04 306.663L145.881 227.286C145.881 227.286 128.786 223.085 74.4711 256.464Z" fill="#94B6C7" transform="matrix(1.00044 0 0 1 46.6687 300.314)"/><path d="M127.412 297.627C127.559 297.324 170.667 290.8 236.921 297.627L265.294 331.767 268.873 378.726 90.4291 377.776C90.4291 377.776 94.2384 354.014 92.8618 338.883 92.8617 338.883 114.192 325.252 127.412 297.627Z" fill="#F9705A" transform="matrix(1.00044 0 0 1 46.6687 300.314)"/><path d="M232.406 244.129C232.406 244.129 240.454 278.875 236.921 297.627L220.559 296.166C220.559 296.166 219.28 245.84 214.408 236.279 214.408 236.279 228.774 236.807 232.406 244.129Z" fill="#F9705A" transform="matrix(1.00044 0 0 1 46.6687 300.314)"/><path d="M133.642 228.551C133.642 228.551 143.627 282.584 141.467 295.948L127.412 297.627C127.412 297.627 122.553 250.257 111.937 236.279 111.937 236.279 119.588 226.852 133.642 228.551Z" fill="#F9705A" transform="matrix(1.00044 0 0 1 46.6687 300.314)"/><path d="M206.444 33.6973C206.444 33.6973 228.972 32.6672 251.643 52.1016 251.643 52.1016 264.306 70.3592 268.722 90.3828 273.14 110.405 277.556 128.907 294.341 121.57 294.341 121.57 280.795 116.779 281.973 103.433 283.152 90.0878 267.085-7.78378 186.338 6.40572L206.444 33.6973Z" fill="#926841" transform="matrix(1.00044 0 0 1 46.6687 300.314)"/><path d="M277.273 74.5247C277.273 74.5247 286.913 104.517 300.197 100.983 300.197 100.983 285.236 112.672 277.273 99.6127 269.311 86.554 277.273 74.5247 277.273 74.5247Z" fill="#926841" transform="matrix(1.00044 0 0 1 46.6687 300.314)"/><path d="M55.2386 133.715C55.2386 133.715 56.122 148.688 44.343 149.276 44.343 149.276 59.1584 160.893 63.5308 141.244 67.8991 121.596 55.2386 133.715 55.2386 133.715Z" fill="#926841" transform="matrix(1.00044 0 0 1 46.6687 300.314)"/><path d="M214.964 75.4323C214.964 75.4323 229.327 71.5899 236.75 75.1115 244.169 78.6307 240.801 83.6829 237.537 83.5072 234.274 83.3307 221.071 82.5996 217.212 83.9569 213.354 85.3184 209.258 78.6863 214.964 75.4323Z" fill="#926841" transform="matrix(1.00044 0 0 1 46.6687 300.314)"/><path d="M141.179 84.3664C141.179 84.3664 126.42 86.1776 120.857 92.2213 115.295 98.2601 120.307 101.685 123.268 100.302 126.228 98.9154 138.197 93.2981 142.283 93.1119 146.372 92.9306 147.69 85.2474 141.179 84.3664Z" fill="#926841" transform="matrix(1.00044 0 0 1 46.6687 300.314)"/><path d="M147.616 156.678C147.625 156.693 147.769 156.902 148.085 157.271 148.411 157.66 148.921 158.213 149.615 158.878 150.294 159.552 151.205 160.289 152.252 161.106 153.329 161.895 154.592 162.708 156.022 163.499 157.465 164.271 159.07 165.016 160.828 165.668 161.71 165.984 162.603 166.336 163.565 166.571 164.519 166.827 165.468 167.147 166.484 167.335 168.475 167.829 170.595 168.095 172.744 168.36 173.79 168.453 174.844 168.546 175.901 168.641 177.052 168.655 178.208 168.667 179.363 168.681 181.55 168.602 183.572 168.505 185.737 168.128 186.805 168.01 187.838 167.741 188.872 167.535 189.912 167.351 190.917 167.068 191.901 166.771 192.396 166.628 192.886 166.486 193.371 166.346 193.849 166.175 194.321 166.007 194.788 165.841 195.734 165.532 196.65 165.198 197.519 164.811 198.401 164.455 199.253 164.088 200.055 163.686 200.872 163.31 201.665 162.947 202.394 162.539 205.357 160.982 207.732 159.454 209.349 158.324 210.152 157.749 210.787 157.3 211.202 156.978 211.605 156.659 211.82 156.489 211.82 156.489L211.882 156.441C212.284 156.123 212.868 156.191 213.186 156.595 213.459 156.94 213.446 157.419 213.183 157.749 213.183 157.749 212.991 157.988 212.63 158.439 212.267 158.87 211.742 159.509 211.01 160.253 209.56 161.752 207.361 163.79 204.391 165.827 202.915 166.856 201.257 167.904 199.402 168.833 198.493 169.335 197.527 169.789 196.522 170.22 195.531 170.688 194.485 171.083 193.401 171.435 192.328 171.821 191.23 172.194 190.083 172.465 188.947 172.772 187.796 173.087 186.602 173.243 184.286 173.69 181.684 173.896 179.257 173.972 178.102 173.94 176.947 173.905 175.796 173.872L175.459 173.857 175.235 173.833 174.787 173.784 173.893 173.688 172.114 173.495C169.756 173.172 167.449 172.691 165.257 172.047 164.151 171.777 163.091 171.383 162.062 170.99 161.021 170.634 160.045 170.156 159.092 169.716 157.182 168.841 155.483 167.775 153.982 166.721 153.227 166.2 152.55 165.625 151.899 165.104 151.277 164.54 150.697 163.998 150.166 163.476 149.125 162.404 148.3 161.396 147.686 160.516 147.049 159.655 146.654 158.898 146.378 158.386 146.098 157.85 145.977 157.545 145.984 157.561 145.741 157.111 145.908 156.548 146.358 156.303 146.809 156.06 147.372 156.227 147.616 156.678Z" fill="#3F3F3C" transform="matrix(1.00044 0 0 1 46.6687 300.314)"/><path d="M29.0198 177.575C29.0198 177.575 30.7391 176.943 33.4015 176.633 34.7342 176.492 36.3072 176.385 37.9971 176.48 38.8407 176.512 39.7172 176.585 40.6014 176.714 41.4885 176.814 42.3787 177.05 43.2759 177.217 44.1593 177.462 45.039 177.736 45.8939 178.036 46.7378 178.389 47.5721 178.71 48.3309 179.15 49.0842 179.601 49.8434 179.96 50.4601 180.496 51.0892 181.002 51.7147 181.425 52.1854 181.952 52.6722 182.46 53.0958 182.941 53.4613 183.366 53.8152 183.804 54.0481 184.253 54.2662 184.589 54.6829 185.279 54.8937 185.678 54.8937 185.678 55.0533 185.981 54.9368 186.355 54.633 186.516 54.4157 186.632 54.1618 186.604 53.9756 186.467L53.8962 186.409C53.8962 186.409 53.5436 186.15 52.9765 185.691 52.6867 185.469 52.3712 185.17 51.9705 184.875 51.5445 184.605 51.0734 184.302 50.5841 183.956 50.0977 183.605 49.4681 183.36 48.8882 183.005 48.3139 182.637 47.584 182.44 46.9247 182.099 46.2537 181.771 45.4715 181.607 44.7476 181.298 43.9915 181.056 43.204 180.853 42.4234 180.64 41.6238 180.472 40.8439 180.23 40.0391 180.118 39.242 179.982 38.4621 179.801 37.6871 179.713 36.1508 179.463 34.691 179.328 33.4308 179.174 30.8849 178.95 29.1875 178.8 29.1875 178.8 28.8388 178.773 28.5793 178.467 28.6067 178.119 28.6273 177.867 28.7981 177.66 29.0198 177.575Z" fill="#926841" transform="matrix(1.00044 0 0 1 46.6687 300.314)"/><path d="M54.3326 199.037C54.3326 199.037 53.7478 199.358 52.9361 199.675 52.1354 200.02 51.1564 200.398 50.3343 200.797 50.1453 200.912 49.9062 200.97 49.739 201.099 49.5637 201.221 49.3449 201.285 49.1869 201.413 48.8254 201.622 48.4986 201.851 48.1947 202.085 47.8876 202.315 47.6132 202.546 47.4209 202.729 47.2158 202.902 47.0707 203.009 47.0707 203.009 46.9776 203.336 46.6351 203.526 46.3066 203.433 45.9785 203.338 45.7879 202.997 45.8818 202.667 45.927 202.683 45.6327 201.903 45.9914 200.775 46.0548 200.481 46.1849 200.188 46.3598 199.893 46.5126 199.58 46.7145 199.275 46.9784 199.006 47.2227 198.713 47.5003 198.444 47.824 198.221 48.1343 197.97 48.4813 197.805 48.823 197.608 49.5328 197.312 50.2582 197.087 50.9425 197.046 51.6232 196.972 52.2503 197.037 52.773 197.139 53.8108 197.35 54.4568 197.807 54.4568 197.805 54.776 198.031 54.8522 198.474 54.6261 198.793 54.5625 198.884 54.481 198.954 54.3915 199.005L54.3326 199.037Z" fill="#926841" transform="matrix(1.00044 0 0 1 46.6687 300.314)"/><path d="M76.5672 165.061C76.5672 165.061 55.8907 169.853 58.7945 182.848 61.695 195.843 78.2546 196.071 90.429 184.431L76.5672 165.061Z" fill="#F6C79D" transform="matrix(1.00044 0 0 1 46.6687 300.314)"/><path d="M206.444 33.6973C206.444 33.6973 191.368 68.149 167.325 71.2409 167.325 71.2409 179.059 63.7327 177.292 45.1817 177.292 45.1817 142.178 88.8448 100.659 96.7955 100.659 96.7955 104.801 189.468 75.4288 194.252 75.4288 194.252 84.3351 176.364 72.0333 167.107L66.2516 169.29C66.2516 169.29 60.2438 155.221 54.5019 143.487 48.7597 131.754 33.3007 34.5807 116.339 7.63719 199.377-19.3054 206.444 33.6973 206.444 33.6973Z" fill="#926841" transform="matrix(1.00044 0 0 1 46.6687 300.314)"/><path d="M65.8969 170.235C65.8969 170.235 65.7841 170.327 65.5724 170.496 65.3742 170.663 65.0679 170.934 64.7011 171.278 63.968 171.969 62.9536 173.005 62.0235 174.371 61.103 175.741 60.3147 177.463 60.172 179.35 60.0765 180.291 60.1876 181.269 60.4049 182.251 60.5613 182.737 60.6249 183.243 60.8418 183.726L61.4894 185.181C61.7465 185.655 62.046 186.121 62.3176 186.591L62.5256 186.944 62.6292 187.12 62.6808 187.207 62.7066 187.252 62.7127 187.263C62.7308 187.287 62.5817 187.09 62.649 187.178L62.6663 187.201 63.2184 187.903C63.5981 188.433 63.9342 188.714 64.2389 189.027 64.5133 189.366 64.9688 189.63 65.3266 189.936 66.1206 190.469 66.9528 190.912 67.8157 191.21 68.6757 191.504 69.5358 191.724 70.3579 191.833 72.0014 192.069 73.4499 192.039 74.4575 191.969 74.962 191.921 75.3578 191.886 75.629 191.86 75.8869 191.823 76.0248 191.804 76.0248 191.804L76.0513 191.801C76.3931 191.753 76.7099 191.99 76.7582 192.332 76.7953 192.6 76.6578 192.85 76.4337 192.97 76.4337 192.97 75.8514 193.283 74.7939 193.633 73.7388 193.975 72.1747 194.375 70.2035 194.392 69.221 194.423 68.1348 194.323 67.0019 194.057 66.4293 193.954 65.8658 193.719 65.2734 193.539 64.7079 193.288 64.1216 193.022 63.567 192.687 63.0278 192.308 62.4575 192.016 61.9319 191.5L61.1331 190.772C60.8639 190.517 60.7354 190.31 60.5286 190.075L59.9607 189.385 59.8548 189.243 59.8217 189.192 59.7565 189.089 59.6263 188.883 59.3656 188.467C59.0266 187.907 58.6514 187.367 58.3443 186.78L57.5624 184.918C57.3097 184.297 57.2037 183.6 57.0277 182.951 56.7577 181.621 56.7455 180.232 56.9519 178.935 57.1328 177.632 57.6108 176.44 58.1517 175.403 58.7014 174.368 59.3777 173.505 60.0439 172.777 61.392 171.329 62.7509 170.456 63.7153 169.91 64.1941 169.623 64.5968 169.459 64.8764 169.328 65.1525 169.214 65.3 169.152 65.3 169.152 65.6163 169.021 65.9807 169.171 66.1125 169.487 66.2213 169.747 66.1383 170.04 65.9287 170.21L65.8969 170.235Z" fill="#926841" transform="matrix(1.00044 0 0 1 46.6687 300.314)"/></g></svg>